<svg xmlns="http://www.w3.org/2000/svg" viewBox="0 0 24 25" fill="none" aria-hidden="true">
  <g>
    <mask id="hg-vitals-bp-mask" maskUnits="userSpaceOnUse" x="0" y="0" width="24" height="25" style="mask-type: alpha">
      <rect y="0.857178" width="24" height="24" fill="#D9D9D9"/>
    </mask>
    <g mask="url(#hg-vitals-bp-mask)">
      <path d="M10.45 16.3572C10.8667 16.7738 11.3917 16.9697 12.025 16.9447C12.6583 16.9197 13.1167 16.6905 13.4 16.2572L19 7.85718L10.6 13.4572C10.1667 13.7572 9.92917 14.2113 9.8875 14.8197C9.84583 15.428 10.0333 15.9405 10.45 16.3572ZM5.1 20.8572C4.73333 20.8572 4.39583 20.778 4.0875 20.6197C3.77917 20.4613 3.53333 20.2238 3.35 19.9072C2.91667 19.1238 2.58333 18.3113 2.35 17.4697C2.11667 16.628 2 15.7572 2 14.8572C2 13.4738 2.2625 12.1738 2.7875 10.9572C3.3125 9.74051 4.025 8.68218 4.925 7.78218C5.825 6.88218 6.88333 6.16968 8.1 5.64468C9.31667 5.11968 10.6167 4.85718 12 4.85718C13.3667 4.85718 14.65 5.11551 15.85 5.63218C17.05 6.14884 18.1 6.85301 19 7.74468C19.9 8.63634 20.6167 9.67801 21.15 10.8697C21.6833 12.0613 21.9583 13.3405 21.975 14.7072C21.9917 15.6238 21.8875 16.5197 21.6625 17.3947C21.4375 18.2697 21.0917 19.1072 20.625 19.9072C20.4417 20.2238 20.1958 20.4613 19.8875 20.6197C19.5792 20.778 19.2417 20.8572 18.875 20.8572H5.1Z" fill="white" fill-opacity="0.68"/>
    </g>
  </g>
</svg>
