<svg xmlns="http://www.w3.org/2000/svg" viewBox="0 0 24 25" fill="none" aria-hidden="true">
  <g>
    <mask id="hg-vitals-pr-mask" maskUnits="userSpaceOnUse" x="0" y="0" width="24" height="25" style="mask-type: alpha">
      <rect y="0.857178" width="24" height="24" fill="#D9D9D9"/>
    </mask>
    <g mask="url(#hg-vitals-pr-mask)">
      <path d="M12 21.8571L10.55 20.5571C8.86667 19.0404 7.475 17.7321 6.375 16.6321C5.275 15.5321 4.4 14.5446 3.75 13.6696C3.1 12.7946 2.64583 11.9904 2.3875 11.2571C2.12917 10.5237 2 9.77375 2 9.00708C2 7.44041 2.525 6.13208 3.575 5.08208C4.625 4.03208 5.93333 3.50708 7.5 3.50708C8.36667 3.50708 9.19167 3.69041 9.975 4.05708C10.7583 4.42375 11.4333 4.94041 12 5.60708C12.5667 4.94041 13.2417 4.42375 14.025 4.05708C14.8083 3.69041 15.6333 3.50708 16.5 3.50708C18.0667 3.50708 19.375 4.03208 20.425 5.08208C21.475 6.13208 22 7.44041 22 9.00708C22 9.77375 21.8708 10.5237 21.6125 11.2571C21.3542 11.9904 20.9 12.7946 20.25 13.6696C19.6 14.5446 18.725 15.5321 17.625 16.6321C16.525 17.7321 15.1333 19.0404 13.45 20.5571L12 21.8571Z" fill="white" fill-opacity="0.68"/>
    </g>
  </g>
</svg>
