<svg xmlns="http://www.w3.org/2000/svg" viewBox="0 0 24 25" fill="none" aria-hidden="true">
  <g>
    <mask id="hg-vitals-rr-mask" maskUnits="userSpaceOnUse" x="0" y="0" width="24" height="25" style="mask-type: alpha">
      <rect y="0.857178" width="24" height="24" fill="#D9D9D9"/>
    </mask>
    <g mask="url(#hg-vitals-rr-mask)">
      <path d="M5 21.8572C4.15 21.8572 3.4375 21.5697 2.8625 20.9947C2.2875 20.4197 2 19.7072 2 18.8572V15.0322C2 14.8988 2.0125 14.778 2.0375 14.6697C2.0625 14.5613 2.09167 14.4488 2.125 14.3322L4.625 7.65718C4.825 7.10718 5.175 6.66968 5.675 6.34468C6.175 6.01968 6.71667 5.85718 7.3 5.85718C7.73333 5.85718 8.14167 5.96551 8.525 6.18218C8.90833 6.39884 9.225 6.69051 9.475 7.05718V9.85718L7.45 11.8822C7.3 12.0322 7.22917 12.2072 7.2375 12.4072C7.24583 12.6072 7.325 12.7822 7.475 12.9322C7.625 13.0822 7.8 13.1572 8 13.1572C8.2 13.1572 8.375 13.0822 8.525 12.9322L11 10.4572V3.85718C11 3.57384 11.0958 3.33634 11.2875 3.14468C11.4792 2.95301 11.7167 2.85718 12 2.85718C12.2833 2.85718 12.5208 2.95301 12.7125 3.14468C12.9042 3.33634 13 3.57384 13 3.85718V10.4572L15.475 12.9322C15.625 13.0822 15.8 13.1572 16 13.1572C16.2 13.1572 16.375 13.0822 16.525 12.9322C16.675 12.7822 16.75 12.6072 16.75 12.4072C16.75 12.2072 16.675 12.0322 16.525 11.8822L14.5 9.85718V7.05718C14.75 6.69051 15.0667 6.39884 15.45 6.18218C15.8333 5.96551 16.2417 5.85718 16.675 5.85718C17.2583 5.85718 17.7958 6.01968 18.2875 6.34468C18.7792 6.66968 19.1333 7.10718 19.35 7.65718L21.85 14.3322C21.8833 14.4488 21.9125 14.5613 21.9375 14.6697C21.9625 14.778 21.975 14.8988 21.975 15.0322V18.8572C21.975 19.7072 21.6833 20.4197 21.1 20.9947C20.5167 21.5697 19.8083 21.8572 18.975 21.8572H15.975C15.1417 21.8572 14.4375 21.5697 13.8625 20.9947C13.2875 20.4197 13 19.7072 13 18.8572V16.9822C13 16.9488 13.0042 16.9072 13.0125 16.8572C13.0208 16.8072 13.025 16.7655 13.025 16.7322L13.375 13.6822L12 12.2822L10.6 13.6822L10.975 16.7322C10.975 16.7655 10.9792 16.8072 10.9875 16.8572C10.9958 16.9072 11 16.9488 11 16.9822V18.8572C11 19.7072 10.7083 20.4197 10.125 20.9947C9.54167 21.5697 8.83333 21.8572 8 21.8572H5Z" fill="white" fill-opacity="0.68"/>
    </g>
  </g>
</svg>
