<svg xmlns="http://www.w3.org/2000/svg" viewBox="0 0 19 21" fill="none" aria-hidden="true">
  <path d="M6.26562 12.5623C6.26562 13.0779 6.32422 13.5212 6.44141 13.8923C6.55859 14.2634 6.74414 14.5486 6.99805 14.7478C7.25195 14.947 7.58398 15.0466 7.99414 15.0466C8.41992 15.0466 8.75781 14.947 9.00781 14.7478C9.26172 14.5486 9.44336 14.2634 9.55273 13.8923C9.66602 13.5212 9.72266 13.0779 9.72266 12.5623C9.72266 11.7888 9.59375 11.1775 9.33594 10.7283C9.07812 10.2791 8.63477 10.0544 8.00586 10.0544C7.58789 10.0544 7.25 10.156 6.99219 10.3591C6.73828 10.5623 6.55273 10.8513 6.43555 11.2263C6.32227 11.6013 6.26562 12.0466 6.26562 12.5623Z" fill="white" fill-opacity="0.68"/>
  <path fill-rule="evenodd" clip-rule="evenodd" d="M8 20.8572C5.71667 20.8572 3.8125 20.0738 2.2875 18.5072C0.7625 16.9405 0 14.9905 0 12.6572C0 10.9905 0.6625 9.17801 1.9875 7.21968C3.3125 5.26134 5.31667 3.14051 8 0.857178C10.6833 3.14051 12.6875 5.26134 14.0125 7.21968C14.1004 7.34953 14.1853 7.47874 14.2673 7.60731L15.041 6.82495C15.4023 6.44735 15.6823 6.14461 15.8809 5.91675C16.0827 5.68888 16.2243 5.4952 16.3057 5.33569C16.387 5.17619 16.4277 5.01017 16.4277 4.83765C16.4277 4.62606 16.3594 4.47306 16.2227 4.37866C16.0859 4.28426 15.9248 4.23706 15.7393 4.23706C15.5146 4.23706 15.2868 4.30216 15.0557 4.43237C14.8278 4.55933 14.569 4.74813 14.2793 4.99878L13.2197 3.75854C13.4346 3.56649 13.6624 3.3842 13.9033 3.21167C14.1442 3.03589 14.429 2.89266 14.7578 2.78198C15.0866 2.67131 15.487 2.61597 15.959 2.61597C16.444 2.61597 16.8639 2.7006 17.2188 2.86987C17.5768 3.03914 17.8535 3.27189 18.0488 3.56812C18.2441 3.86108 18.3418 4.19474 18.3418 4.56909C18.3418 4.9825 18.2653 5.35197 18.1123 5.67749C17.9626 5.99976 17.7363 6.32365 17.4336 6.64917C17.1309 6.97144 16.7533 7.33765 16.3008 7.7478L15.7783 8.21655V8.26538H18.4785V9.85718H15.4312C15.8104 10.8322 16 11.7656 16 12.6572C16 14.9905 15.2375 16.9405 13.7125 18.5072C12.1875 20.0738 10.2833 20.8572 8 20.8572ZM12.1602 12.5623C12.1602 13.2224 12.0801 13.824 11.9199 14.3669C11.7637 14.906 11.5176 15.3708 11.1816 15.7615C10.8457 16.1521 10.4141 16.4529 9.88672 16.6638C9.35938 16.8708 8.72852 16.9744 7.99414 16.9744C7.27539 16.9744 6.65234 16.8708 6.125 16.6638C5.60156 16.4529 5.16992 16.1541 4.83008 15.7673C4.49023 15.3767 4.23828 14.9099 4.07422 14.3669C3.91016 13.824 3.82812 13.2185 3.82812 12.5505C3.82812 11.6599 3.97461 10.8865 4.26758 10.2302C4.56445 9.57007 5.02148 9.0603 5.63867 8.70093C6.25586 8.33765 7.04492 8.15601 8.00586 8.15601C8.98242 8.15601 9.77539 8.33765 10.3848 8.70093C10.998 9.06421 11.4473 9.57593 11.7324 10.2361C12.0176 10.8962 12.1602 11.6716 12.1602 12.5623Z" fill="white" fill-opacity="0.68"/>
</svg>
